<svg xmlns="http://www.w3.org/2000/svg" viewBox="0 0 24 24">
  <path d="M17 2 C17 2 13 5 11 9 C10 11 9.5 13 9.5 13 L11 14.5 C11 14.5 13 14 15 13 C18 11 21 7 21 7 Z" fill="#c4a055" opacity="0.9"/>
  <path d="M11 9 C11 9 12.5 8.5 15 13 C13 14 11 14.5 11 14.5 Z" fill="#e8dfc8" opacity="0.6"/>
  <path d="M9.5 13 L7.5 15.5 L8 16 L11 14.5" fill="#6b4c1e"/>
  <path d="M8 15.5 L6 18" stroke="#4a3010" stroke-width="1" stroke-linecap="round"/>
  <line x1="3" y1="21" x2="21" y2="21" stroke="#6b5030" stroke-width="1" stroke-linecap="round"/>
  <line x1="3" y1="19" x2="10" y2="19" stroke="#6b5030" stroke-width="0.75" stroke-linecap="round"/>
</svg>
