<svg xmlns="http://www.w3.org/2000/svg" viewBox="0 0 24 24">
  <path d="M20 2 C20 2 14 4 10 10 C8 13 7 16 7 16 L8.5 17.5 C8.5 17.5 11.5 16.5 14 14 C18 10 20 2 20 2 Z" fill="#c4a055" opacity="0.9"/>
  <path d="M10 10 C10 10 12 9 14 14 C11.5 16.5 8.5 17.5 8.5 17.5 Z" fill="#e8dfc8" opacity="0.6"/>
  <path d="M20 2 C20 2 18 6 14 10" stroke="#8b6914" stroke-width="0.5" fill="none"/>
  <path d="M7 16 L5 19 L6 19.5 L8.5 17.5" fill="#6b4c1e"/>
  <path d="M6.5 17.5 L4 21" stroke="#4a3010" stroke-width="1" stroke-linecap="round"/>
</svg>
